<svg width="80" height="63" viewBox="0 0 80 63" xmlns="http://www.w3.org/2000/svg"><title>Image/Large</title><path d="M77.417 0H2.583A2.572 2.572 0 0 0 0 2.562v57.876A2.572 2.572 0 0 0 2.583 63h74.834A2.572 2.572 0 0 0 80 60.438V2.562A2.572 2.572 0 0 0 77.417 0zM75 5v49L54.243 32.153a2.61 2.61 0 0 0-3.78 0l-8.864 9.323-11.884-15.51a2.604 2.604 0 0 0-2.068-1.016h-.002a2.6 2.6 0 0 0-2.068 1.02L5 52.916V5h70zm-3 53H8l19.986-26 11.691 15.158a2.632 2.632 0 0 0 3.966.207l9.096-9.504L72 58zM54 15c2.206 0 4 1.795 4 4 0 2.206-1.794 4-4 4s-4-1.794-4-4c0-2.205 1.794-4 4-4z" fill="#CECECE" fill-rule="evenodd"/></svg>